#!OML:ASF F:\VICON\USERDATA\INSTALL\rory3\rory3.ASF
:FULLY-SPECIFIED
:DEGREES
91
root -0.07560308358574491 17.583301228406214 35.51285698279041 -0.870759702036944 -6.01495924078761 -7.470160082089005
lfemur -25.837645031442143 -3.9863002826815404 -9.355459497901677
ltibia 13.722242181037139
lfoot -5.665748772717379 0.9793120761757614
ltoes -3.9718706140618303
rfemur 9.141014594194301 6.550640951863322 34.82814575977824
rtibia 28.304125560184904
rfoot -16.28758585902189 -3.165243254029124
rtoes -2.2957388882980014
lowerback 1.0 2.5276796375052832 7.429483957675621
upperback 0.0012120369601468228 4.17754416772488 2.1720946961241254
thorax -4.926846473033672 1.9629456695641898 -2.4430964376924527
lowerneck -15.627182300269572 -2.9748136229139326 -1.7892780884002402
upperneck 19.212729223691223 -4.096407170389902 1.635495575907838
head 8.594818890667995 -1.8756495265728585 0.3279801069803255
lclavicle 9.870904802680245e-16 -3.908886624211529e-15
lhumerus -37.443134094632356 11.998593595461175 78.63931470334244
lradius 14.713283453537283
lwrist -4.994386075542369
lhand -26.33547420559597 26.074359300571942
lfingers nan
lthumb 0.8221772144514683 57.5477396237189
rclavicle -1.245703086443444e-15 -4.939848786051163e-15
rhumerus -18.68696317036798 -9.869677113871807 -82.21057781674992
rradius 32.55723749279306
rwrist 0.9124913453802215
rhand -19.89872661841646 1.0
rfingers nan
rthumb 6.408346318432817 -6.858407177562793
92
root -0.030566940750639926 17.56230401899193 35.98017113798082 -1.4343633209480726 -5.790407834248995 -6.871024647371796
lfemur -26.87765675118927 -2.611711206198562 -11.845423957519692
ltibia 20.786503214592322
lfoot -6.022405174520412 0.5868384509774671
ltoes 0.30632158534993614
rfemur 10.546513121100526 5.795257788000836 33.588505234989334
rtibia 31.30651171099523
rfoot -12.908272067162226 -1.6808165195550826
rtoes -4.739680809818772
lowerback 1.0 2.367135118912107 6.770432013609935
upperback 0.07146863701520133 3.9579329619810526 2.057504183103867
thorax -4.871404065615508 1.820408815378698 -2.2331067694444444
lowerneck -15.634743630128254 -3.017438084700037 -1.722681446280693
upperneck 19.74570954591187 -4.164735532809438 1.5629038971020863
head 8.804072324946572 -1.9093463186551345 0.27252700425795423
lclavicle -9.234148134123503e-17 -6.155800670438169e-15
lhumerus -37.854433397566446 13.486789346253993 77.59183002331959
lradius 13.489163268403823
lwrist -7.15640858179399
lhand -25.236531251498082 26.762409378701886
lfingers nan
lthumb 1.317108170624822 56.892760989030066
rclavicle -4.6877321837267376e-17 -3.196776660072455e-15
rhumerus -19.097307579045317 -11.050510790702601 -81.91043774072952
rradius 32.41244111069119
rwrist 1.556675812174264
rhand -19.81397239300483 1.0
rfingers nan
rthumb 6.45438893982429 -5.874712049199351
93
root 0.028627522630385704 17.57891899367269 36.95751171003566 -2.130657031520753 -5.357602995614152 -5.977562272719191
lfemur -25.940641230359354 -2.689518564550604 -13.952124227241377
ltibia 25.50921617303641
lfoot -3.244124880011327 -1.1785692434984332
ltoes 2.6153184858253242
rfemur 10.19932789485763 4.630550454842688 31.640412586185313
rtibia 37.14591003360883
rfoot -6.756449245311038 0.24008116296577509
rtoes -4.347080025374874
lowerback 1.0 2.281423712787677 5.267088851701651
upperback 0.0538926612674166 3.7774958007037758 1.864355995986934
thorax -5.171250605899084 1.7337044909464496 -1.5843485475602368
lowerneck -15.493066873743478 -3.18328551071121 -2.074709242107209
upperneck 20.042609197700045 -4.562918574979583 2.097043836752906
head 8.855826160852928 -2.0775289710152816 0.5071166114806432
lclavicle -4.5157036946708067e-17 -5.421393834067236e-15
lhumerus -38.30657111910941 14.025515500049966 77.07967077498876
lradius 12.875557441569597
lwrist -8.914454262999175
lhand -25.11833241961493 27.23419826113322
lfingers nan
lthumb 1.6893712025050545 57.53898280766963
rclavicle 1.89758205875285e-15 -3.9973293360032e-15
rhumerus -20.398611604310855 -12.43658718315132 -81.5607000894709
rradius 32.34709212744683
rwrist 2.4073817490935103
rhand -19.65175903117022 1.0
rfingers nan
rthumb 6.480586129795287 -5.916263967145024
94
root 0.08192090550751485 17.613437192401467 37.202262901215725 -2.8273104501942763 -5.168310743142247 -5.102482118789131
lfemur -24.595879636904606 -1.8360514841277946 -15.305676552259808
ltibia 29.15205810304085
lfoot -2.9776948927686306 -3.564829176226943
ltoes 1.7397473927646363
rfemur 7.417121075122337 2.8300104531507904 29.972457235059615
rtibia 45.162242387530384
rfoot 3.8437481209796953 1.386569350109327
rtoes -2.2179206906174667
lowerback 1.0 2.2859718125089645 4.803536463596577
upperback 0.06192423760479639 3.6886079321672227 1.7097877036772844
thorax -5.193137834187172 1.7283246397846062 -1.4163520486807448
lowerneck -15.341067965855562 -3.218215280866951 -1.9508243820066735
upperneck 20.28402512550684 -4.894477609125589 2.1452268292803587
head 8.917130628613595 -2.2134977500914492 0.4641443319483564
lclavicle -1.7012995327867633e-15 -5.107508708585902e-15
lhumerus -38.41666476873629 14.095871351099547 76.7559195692755
lradius 13.433834488756442
lwrist -8.221373171631726
lhand -24.3196768063339 28.71621566139015
lfingers nan
lthumb 2.261021978291106 58.674563511522955
rclavicle -5.732933927804654e-16 -3.923188125073905e-15
rhumerus -22.03952957349037 -14.403060395736048 -81.28596716108662
rradius 32.49421607387577
rwrist 3.421424409607384
rhand -19.50483829335273 1.0
rfingers nan
rthumb 6.8182347436831465 -5.522368037411855
95
root 0.13932578999516107 17.666025464766154 37.86103087703767 -3.3476357734264406 -5.047576380572187 -3.9070725309203977
lfemur -22.409711485228726 -0.4561366654186101 -17.048699303481303
ltibia 31.944517889886928
lfoot -4.7409963236541675 -3.4978684027531055
ltoes 1.128713840234786
rfemur 1.9285790365868856 1.9396624029075766 27.635224487393867
rtibia 54.675412633908664
rfoot 14.756599677396213 0.8275965490338981
rtoes 3.2823529001886245
lowerback 1.0 2.44226196737376 4.246312268850276
upperback 0.10865155140351593 3.725552555698288 1.5595722376634886
thorax -5.451026154446724 1.804074635032342 -1.2927978092633128
lowerneck -15.084759916652262 -3.123846785817921 -1.964962102158198
upperneck 20.116851621970127 -4.613033118461789 2.2449376082161114
head 8.781224427040547 -2.087539521444412 0.5524903046497216
lclavicle 9.394918367599706e-16 -2.8689290192711525e-15
lhumerus -38.39482349509809 13.257671457660026 77.17462744560413
lradius 15.454951870728515
lwrist -3.3350002353951242
lhand -25.04967677206176 27.609691335818916
lfingers nan
lthumb 1.2778699766174357 57.40466150967375
rclavicle 2.1163091015340986e-15 -7.394400651281954e-16
rhumerus -23.711769538887502 -15.0494931702864 -81.03983753932258
rradius 33.109698242651035
rwrist 4.284826534119638
rhand -19.21074419476934 1.0
rfingers nan
rthumb 7.041403438534662 -5.387949065445145
96
root 0.1792013951406702 17.722637708597983 38.40350539820287 -3.748701903307598 -4.87883935587717 -2.755990822092382
lfemur -18.832837302349052 -0.6330868997903623 -21.30415418136313
ltibia 31.011857857278784
lfoot -5.681382586092696 -2.2178700357860586
ltoes 1.9729444312461597
rfemur -3.7292006094734482 -0.40745807570342985 22.94943964467908
rtibia 64.1240943068957
rfoot 20.550139355981834 -1.6831128758931841
rtoes 18.07810316369808
lowerback 1.0 2.31454473429349 1.5011448114038481
upperback 0.3843591780712583 3.179907403867644 0.8669421388726434
thorax -5.085068961952146 1.5708636613590317 -0.42899504117915943
lowerneck -15.777888511773398 -3.0485567052937794 -2.1487219559697173
upperneck 20.224603612231252 -4.312795703995918 2.082160887109883
head 9.035285155165267 -1.9479401981556146 0.5482759371995202
lclavicle 1.199267543637928e-15 -2.6313388321061388e-15
lhumerus -37.62816831929797 12.383040341172249 77.97667901709731
lradius 17.988995534161397
lwrist 2.3522458375009005
lhand -28.115425987799316 24.880307458541
lfingers nan
lthumb -1.6981139227773578 54.402494895257185
rclavicle 2.1382482245951774e-15 -1.960095829085198e-15
rhumerus -24.38963198669215 -15.905475218412079 -81.15439213547278
rradius 32.69136530919495
rwrist 5.196730971921371
rhand -19.163217383986428 1.0
rfingers nan
rthumb 6.954600142260441 -5.286057242160862
97
root 0.2016520455508439 17.775454128662954 38.80565429715042 -4.03506655160483 -4.507937907043694 -1.9830543500671434
lfemur -15.990311014699145 -0.89803010929357 -21.80695483850667
ltibia 30.730315798394606
lfoot -7.865163306839122 -1.5382714795937695
ltoes 2.8093905625429505
rfemur -9.8344600046654 -3.3278319561874485 22.69165490544308
rtibia 71.3404392305608
rfoot 15.837780373701133 -6.126566905885729
rtoes 21.7494319448046
lowerback 1.0 1.8787474092356062 1.0538374709227643
upperback 0.33974413129365655 2.630172563006095 0.9046909862615422
thorax -5.427558066125861 1.2822741652020537 -0.009933492344728734
lowerneck -15.418531638814509 -3.112342890854326 -2.5007276474740503
upperneck 20.42725218513537 -4.389738058144552 2.291557163086187
head 9.025776927036347 -2.022755424851151 0.6831462462343642
lclavicle -2.221209156170136e-16 -4.148949992936075e-15
lhumerus -36.43788906508756 11.709273248659533 78.43263919512249
lradius 18.328407429054028
lwrist 2.143410579341533
lhand -31.367460157767155 18.79724645338255
lfingers nan
lthumb -4.0810168117269665 49.80989696653553
rclavicle 1.0108498782167751e-16 -3.031111104137993e-15
rhumerus -25.387482047914922 -16.266845446976937 -81.08095613004235
rradius 31.9266592114868
rwrist 5.983171567417832
rhand -19.041102792912394 1.0
rfingers nan
rthumb 7.133332423234518 -5.400894213176952
